<mxfile host="Electron" agent="Mozilla/5.0 (Macintosh; Intel Mac OS X 10_15_7) AppleWebKit/537.36 (KHTML, like Gecko) draw.io/24.7.5 Chrome/126.0.6478.183 Electron/31.3.0 Safari/537.36" version="24.7.5">
  <diagram id="C5RBs43oDa-KdzZeNtuy" name="Page-1">
    <mxGraphModel dx="545" dy="878" grid="1" gridSize="10" guides="1" tooltips="1" connect="1" arrows="1" fold="1" page="1" pageScale="1" pageWidth="827" pageHeight="1169" math="0" shadow="0">
      <root>
        <mxCell id="WIyWlLk6GJQsqaUBKTNV-0" />
        <mxCell id="WIyWlLk6GJQsqaUBKTNV-1" parent="WIyWlLk6GJQsqaUBKTNV-0" />
        <mxCell id="22ED8Xvf3SWe-S5JhBms-2" style="edgeStyle=orthogonalEdgeStyle;rounded=0;orthogonalLoop=1;jettySize=auto;html=1;exitX=0.5;exitY=1;exitDx=0;exitDy=0;entryX=0.5;entryY=0;entryDx=0;entryDy=0;" edge="1" parent="WIyWlLk6GJQsqaUBKTNV-1" source="22ED8Xvf3SWe-S5JhBms-0" target="22ED8Xvf3SWe-S5JhBms-1">
          <mxGeometry relative="1" as="geometry" />
        </mxCell>
        <mxCell id="22ED8Xvf3SWe-S5JhBms-0" value="start" style="ellipse;whiteSpace=wrap;html=1;" vertex="1" parent="WIyWlLk6GJQsqaUBKTNV-1">
          <mxGeometry x="70" y="80" width="120" height="80" as="geometry" />
        </mxCell>
        <mxCell id="22ED8Xvf3SWe-S5JhBms-4" value="" style="edgeStyle=orthogonalEdgeStyle;rounded=0;orthogonalLoop=1;jettySize=auto;html=1;" edge="1" parent="WIyWlLk6GJQsqaUBKTNV-1" source="22ED8Xvf3SWe-S5JhBms-1" target="22ED8Xvf3SWe-S5JhBms-3">
          <mxGeometry relative="1" as="geometry" />
        </mxCell>
        <mxCell id="22ED8Xvf3SWe-S5JhBms-1" value="input projectedCompletionHours&lt;div&gt;input wholesaleMaterialCost&lt;/div&gt;" style="shape=parallelogram;perimeter=parallelogramPerimeter;whiteSpace=wrap;html=1;fixedSize=1;" vertex="1" parent="WIyWlLk6GJQsqaUBKTNV-1">
          <mxGeometry x="25" y="210" width="210" height="100" as="geometry" />
        </mxCell>
        <mxCell id="22ED8Xvf3SWe-S5JhBms-6" value="" style="edgeStyle=orthogonalEdgeStyle;rounded=0;orthogonalLoop=1;jettySize=auto;html=1;" edge="1" parent="WIyWlLk6GJQsqaUBKTNV-1" source="22ED8Xvf3SWe-S5JhBms-3" target="22ED8Xvf3SWe-S5JhBms-5">
          <mxGeometry relative="1" as="geometry" />
        </mxCell>
        <mxCell id="22ED8Xvf3SWe-S5JhBms-3" value="laborCost = 30 * projectedCompletionHours&lt;div&gt;&lt;br&gt;&lt;/div&gt;&lt;div&gt;totalJobCost = laborCost + (1.2 * wholesaleMaterialCost)&lt;/div&gt;" style="whiteSpace=wrap;html=1;" vertex="1" parent="WIyWlLk6GJQsqaUBKTNV-1">
          <mxGeometry y="350" width="260" height="110" as="geometry" />
        </mxCell>
        <mxCell id="22ED8Xvf3SWe-S5JhBms-8" value="" style="edgeStyle=orthogonalEdgeStyle;rounded=0;orthogonalLoop=1;jettySize=auto;html=1;" edge="1" parent="WIyWlLk6GJQsqaUBKTNV-1" source="22ED8Xvf3SWe-S5JhBms-5" target="22ED8Xvf3SWe-S5JhBms-7">
          <mxGeometry relative="1" as="geometry" />
        </mxCell>
        <mxCell id="22ED8Xvf3SWe-S5JhBms-5" value="output totalJobCost&lt;div&gt;&lt;br&gt;&lt;/div&gt;" style="shape=parallelogram;perimeter=parallelogramPerimeter;whiteSpace=wrap;html=1;fixedSize=1;" vertex="1" parent="WIyWlLk6GJQsqaUBKTNV-1">
          <mxGeometry x="20" y="510" width="220" height="115" as="geometry" />
        </mxCell>
        <mxCell id="22ED8Xvf3SWe-S5JhBms-7" value="End of program" style="ellipse;whiteSpace=wrap;html=1;" vertex="1" parent="WIyWlLk6GJQsqaUBKTNV-1">
          <mxGeometry x="60" y="680" width="140" height="87.5" as="geometry" />
        </mxCell>
      </root>
    </mxGraphModel>
  </diagram>
</mxfile>
